<svg width="240" height="240" viewBox="0 0 240 240" fill="none" xmlns="http://www.w3.org/2000/svg">
  <defs>
    <radialGradient id="glow" cx="0" cy="0" r="1" gradientUnits="userSpaceOnUse" gradientTransform="translate(138 92) rotate(90) scale(120)">
      <stop stop-color="#FF3347" stop-opacity="0.45"/>
      <stop offset="1" stop-color="#FF3347" stop-opacity="0"/>
    </radialGradient>
    <linearGradient id="bolt" x1="88" y1="180" x2="176" y2="44" gradientUnits="userSpaceOnUse">
      <stop stop-color="#FFFFFF"/>
      <stop offset="0.42" stop-color="#FF5A3D"/>
      <stop offset="1" stop-color="#FF001F"/>
    </linearGradient>
    <filter id="softGlow" x="36" y="18" width="176" height="202" filterUnits="userSpaceOnUse" color-interpolation-filters="sRGB">
      <feGaussianBlur stdDeviation="10" result="blur"/>
      <feBlend in="SourceGraphic" in2="blur" mode="screen"/>
    </filter>
  </defs>
  <rect width="240" height="240" fill="transparent"/>
  <circle cx="136" cy="98" r="104" fill="url(#glow)"/>
  <g filter="url(#softGlow)">
    <path d="M171 40L107 104H150L92 181L112 135H70L171 40Z" fill="url(#bolt)"/>
    <path d="M177 44L181.4 57.6L194 52.5L185.8 63.5L197 72.4L183.3 72.2L184.5 86L176.4 74.9L165.8 83.6L169.2 70.3L155.7 66.6L169.4 61.2L165.4 48L175.7 56.9L177 44Z" fill="#FFF7D4"/>
  </g>
</svg>
